<svg xmlns="http://www.w3.org/2000/svg" width="1800" height="1270" viewBox="0 0 1800 1270">
<rect width="100%" height="100%" fill="white"/>
<text x="900" y="34" text-anchor="middle" font-family="Arial" font-size="22" font-weight="bold">GridWorld codebook diagnostics, seed=42</text>
<text x="28" y="92" font-family="Arial" font-size="16" font-weight="bold">Code entropy</text>
<line x1="80" y1="110.0" x2="558" y2="110.0" stroke="#e5e7eb"/>
<text x="72" y="114.0" text-anchor="end" font-family="Arial" font-size="10" fill="#4b5563">1.81</text>
<line x1="80" y1="164.5" x2="558" y2="164.5" stroke="#e5e7eb"/>
<text x="72" y="168.5" text-anchor="end" font-family="Arial" font-size="10" fill="#4b5563">1.49</text>
<line x1="80" y1="219.0" x2="558" y2="219.0" stroke="#e5e7eb"/>
<text x="72" y="223.0" text-anchor="end" font-family="Arial" font-size="10" fill="#4b5563">1.17</text>
<line x1="80" y1="273.5" x2="558" y2="273.5" stroke="#e5e7eb"/>
<text x="72" y="277.5" text-anchor="end" font-family="Arial" font-size="10" fill="#4b5563">0.859</text>
<line x1="80" y1="328.0" x2="558" y2="328.0" stroke="#e5e7eb"/>
<text x="72" y="332.0" text-anchor="end" font-family="Arial" font-size="10" fill="#4b5563">0.542</text>
<polyline points="80.0,313.0 84.8,174.2 89.7,173.0 94.5,170.4 99.3,149.3 104.1,153.5 109.0,158.8 113.8,164.3 118.6,136.3 123.5,151.5 128.3,137.1 133.1,147.1 137.9,132.5 142.8,133.8 147.6,156.1 152.4,155.0 157.3,136.5 162.1,134.1 166.9,149.1 171.7,150.9 176.6,156.1 181.4,142.6 186.2,143.6 191.1,140.8 195.9,142.0 200.7,147.3 205.5,141.9 210.4,157.5 215.2,125.0 220.0,141.5 224.8,156.8 229.7,143.1 234.5,144.5 239.3,143.1 244.2,144.6 249.0,149.8 253.8,175.4 258.6,137.0 263.5,143.6 268.3,158.7 273.1,155.0 278.0,127.2 282.8,170.6 287.6,147.6 292.4,152.0 297.3,142.4 302.1,144.3 306.9,144.2 311.8,127.2 316.6,132.9 321.4,185.8 326.2,133.2 331.1,160.9 335.9,134.5 340.7,167.6 345.6,130.3 350.4,138.5 355.2,145.9 360.0,149.6 364.9,162.2 369.7,168.8 374.5,132.4 379.4,157.8 384.2,144.7 389.0,132.5 393.8,141.4 398.7,146.5 403.5,140.7 408.3,144.9 413.2,147.5 418.0,153.5 422.8,159.0 427.6,134.6 432.5,129.1 437.3,153.9 442.1,139.1 446.9,155.2 451.8,143.5 456.6,125.9 461.4,142.0 466.3,144.0 471.1,187.5 475.9,135.1 480.7,145.5 485.6,139.0 490.4,154.2 495.2,141.1 500.1,148.7 504.9,148.7 509.7,169.1 514.5,174.5 519.4,155.7 524.2,170.6 529.0,144.6 533.9,149.4 538.7,157.8 543.5,162.1 548.3,149.9 553.2,160.1 558.0,163.8" fill="none" stroke="#2563eb" stroke-width="2"/>
<polyline points="80.0,160.8 84.8,141.6 89.7,155.3 94.5,130.3 99.3,159.5 104.1,139.1 109.0,139.0 113.8,133.6 118.6,165.0 123.5,168.2 128.3,170.2 133.1,141.6 137.9,155.9 142.8,157.2 147.6,141.0 152.4,154.6 157.3,130.4 162.1,153.4 166.9,144.2 171.7,139.9 176.6,146.6 181.4,149.7 186.2,149.6 191.1,148.0 195.9,161.8 200.7,137.1 205.5,147.7 210.4,138.7 215.2,151.3 220.0,166.7 224.8,151.9 229.7,171.2 234.5,144.5 239.3,146.7 244.2,148.6 249.0,137.6 253.8,142.0 258.6,137.8 263.5,134.0 268.3,148.4 273.1,168.8 278.0,144.6 282.8,155.8 287.6,142.8 292.4,155.7 297.3,146.0 302.1,142.8 306.9,149.4 311.8,127.5 316.6,131.1" fill="none" stroke="#059669" stroke-width="2"/>
<polyline points="80.0,148.0 84.8,136.1 89.7,139.7 94.5,136.4 99.3,158.4 104.1,146.0 109.0,155.8 113.8,157.7 118.6,154.9 123.5,155.7 128.3,191.0 133.1,186.8 137.9,190.5 142.8,157.4 147.6,173.8 152.4,174.4 157.3,155.2 162.1,196.8 166.9,185.4 171.7,155.4 176.6,172.0 181.4,168.8 186.2,157.7 191.1,195.0 195.9,166.4 200.7,195.5 205.5,160.6 210.4,203.4 215.2,163.0 220.0,163.3 224.8,193.3 229.7,185.7 234.5,184.6 239.3,218.4 244.2,203.4 249.0,158.6 253.8,151.5 258.6,173.3 263.5,167.5 268.3,174.2 273.1,200.7 278.0,172.6 282.8,181.0 287.6,179.9 292.4,182.3 297.3,174.9 302.1,163.8 306.9,160.1 311.8,184.0 316.6,185.1" fill="none" stroke="#dc2626" stroke-width="2"/>
<line x1="80" y1="328" x2="558" y2="328" stroke="#374151"/>
<line x1="80" y1="110" x2="80" y2="328" stroke="#374151"/>
<text x="319.0" y="356" text-anchor="middle" font-family="Arial" font-size="11">epoch / step</text>
<line x1="80" y1="354" x2="98" y2="354" stroke="#2563eb" stroke-width="3"/>
<text x="103" y="358" font-family="Arial" font-size="10">alpha=0.33</text>
<line x1="195" y1="354" x2="213" y2="354" stroke="#059669" stroke-width="3"/>
<text x="218" y="358" font-family="Arial" font-size="10">alpha=0.66</text>
<line x1="310" y1="354" x2="328" y2="354" stroke="#dc2626" stroke-width="3"/>
<text x="333" y="358" font-family="Arial" font-size="10">alpha=1.00</text>
<text x="598" y="92" font-family="Arial" font-size="16" font-weight="bold">Code 0 usage fraction</text>
<line x1="650" y1="110.0" x2="1128" y2="110.0" stroke="#e5e7eb"/>
<text x="642" y="114.0" text-anchor="end" font-family="Arial" font-size="10" fill="#4b5563">0.405</text>
<line x1="650" y1="164.5" x2="1128" y2="164.5" stroke="#e5e7eb"/>
<text x="642" y="168.5" text-anchor="end" font-family="Arial" font-size="10" fill="#4b5563">0.296</text>
<line x1="650" y1="219.0" x2="1128" y2="219.0" stroke="#e5e7eb"/>
<text x="642" y="223.0" text-anchor="end" font-family="Arial" font-size="10" fill="#4b5563">0.188</text>
<line x1="650" y1="273.5" x2="1128" y2="273.5" stroke="#e5e7eb"/>
<text x="642" y="277.5" text-anchor="end" font-family="Arial" font-size="10" fill="#4b5563">0.0787</text>
<line x1="650" y1="328.0" x2="1128" y2="328.0" stroke="#e5e7eb"/>
<text x="642" y="332.0" text-anchor="end" font-family="Arial" font-size="10" fill="#4b5563">-0.03</text>
<polyline points="650.0,309.1 654.8,297.3 659.7,293.4 664.5,269.9 669.3,203.3 674.1,262.1 679.0,262.1 683.8,234.7 688.6,238.6 693.5,254.2 698.3,269.9 703.1,281.6 707.9,191.6 712.8,258.2 717.6,266.0 722.4,254.2 727.3,254.2 732.1,269.9 736.9,238.6 741.7,222.9 746.6,269.9 751.4,250.3 756.2,262.1 761.1,250.3 765.9,250.3 770.7,262.1 775.5,215.1 780.4,254.2 785.2,203.3 790.0,269.9 794.8,230.7 799.7,234.7 804.5,222.9 809.3,226.8 814.2,242.5 819.0,273.8 823.8,289.5 828.6,203.3 833.5,273.8 838.3,269.9 843.1,250.3 848.0,281.6 852.8,293.4 857.6,222.9 862.4,238.6 867.3,269.9 872.1,281.6 876.9,258.2 881.8,234.7 886.6,242.5 891.4,273.8 896.2,258.2 901.1,266.0 905.9,246.4 910.7,203.3 915.6,226.8 920.4,199.4 925.2,238.6 930.0,285.6 934.9,203.3 939.7,258.2 944.5,238.6 949.4,222.9 954.2,266.0 959.0,254.2 963.8,238.6 968.7,273.8 973.5,250.3 978.3,250.3 983.2,281.6 988.0,281.6 992.8,277.7 997.6,246.4 1002.5,258.2 1007.3,273.8 1012.1,269.9 1016.9,250.3 1021.8,258.2 1026.6,266.0 1031.4,238.6 1036.3,246.4 1041.1,262.1 1045.9,226.8 1050.7,234.7 1055.6,269.9 1060.4,242.5 1065.2,254.2 1070.1,250.3 1074.9,246.4 1079.7,254.2 1084.5,262.1 1089.4,250.3 1094.2,266.0 1099.0,254.2 1103.9,250.3 1108.7,301.2 1113.5,258.2 1118.3,258.2 1123.2,281.6 1128.0,219.0" fill="none" stroke="#2563eb" stroke-width="2"/>
<polyline points="650.0,309.1 654.8,125.0 659.7,207.3 664.5,191.6 669.3,132.9 674.1,179.8 679.0,215.1 683.8,172.0 688.6,179.8 693.5,183.8 698.3,152.4 703.1,203.3 707.9,222.9 712.8,199.4 717.6,226.8 722.4,160.3 727.3,183.8 732.1,234.7 736.9,215.1 741.7,156.4 746.6,215.1 751.4,203.3 756.2,203.3 761.1,140.7 765.9,199.4 770.7,246.4 775.5,207.3 780.4,203.3 785.2,199.4 790.0,172.0 794.8,199.4 799.7,222.9 804.5,195.5 809.3,242.5 814.2,183.8 819.0,246.4 823.8,246.4 828.6,207.3 833.5,195.5 838.3,230.7 843.1,160.3 848.0,187.7 852.8,277.7 857.6,215.1 862.4,179.8 867.3,175.9 872.1,207.3 876.9,226.8 881.8,215.1 886.6,207.3" fill="none" stroke="#059669" stroke-width="2"/>
<polyline points="650.0,222.9 654.8,246.4 659.7,289.5 664.5,277.7 669.3,305.1 674.1,281.6 679.0,285.6 683.8,301.2 688.6,297.3 693.5,297.3 698.3,305.1 703.1,301.2 707.9,313.0 712.8,309.1 717.6,313.0 722.4,305.1 727.3,305.1 732.1,309.1 736.9,309.1 741.7,305.1 746.6,309.1 751.4,297.3 756.2,301.2 761.1,309.1 765.9,305.1 770.7,305.1 775.5,309.1 780.4,313.0 785.2,297.3 790.0,301.2 794.8,309.1 799.7,313.0 804.5,301.2 809.3,313.0 814.2,305.1 819.0,301.2 823.8,293.4 828.6,313.0 833.5,305.1 838.3,305.1 843.1,305.1 848.0,309.1 852.8,309.1 857.6,309.1 862.4,313.0 867.3,313.0 872.1,301.2 876.9,301.2 881.8,301.2 886.6,309.1" fill="none" stroke="#dc2626" stroke-width="2"/>
<line x1="650" y1="328" x2="1128" y2="328" stroke="#374151"/>
<line x1="650" y1="110" x2="650" y2="328" stroke="#374151"/>
<text x="889.0" y="356" text-anchor="middle" font-family="Arial" font-size="11">epoch / step</text>
<line x1="650" y1="354" x2="668" y2="354" stroke="#2563eb" stroke-width="3"/>
<text x="673" y="358" font-family="Arial" font-size="10">alpha=0.33</text>
<line x1="765" y1="354" x2="783" y2="354" stroke="#059669" stroke-width="3"/>
<text x="788" y="358" font-family="Arial" font-size="10">alpha=0.66</text>
<line x1="880" y1="354" x2="898" y2="354" stroke="#dc2626" stroke-width="3"/>
<text x="903" y="358" font-family="Arial" font-size="10">alpha=1.00</text>
<text x="1168" y="92" font-family="Arial" font-size="16" font-weight="bold">Code 1 usage fraction</text>
<line x1="1220" y1="110.0" x2="1698" y2="110.0" stroke="#e5e7eb"/>
<text x="1212" y="114.0" text-anchor="end" font-family="Arial" font-size="10" fill="#4b5563">0.658</text>
<line x1="1220" y1="164.5" x2="1698" y2="164.5" stroke="#e5e7eb"/>
<text x="1212" y="168.5" text-anchor="end" font-family="Arial" font-size="10" fill="#4b5563">0.481</text>
<line x1="1220" y1="219.0" x2="1698" y2="219.0" stroke="#e5e7eb"/>
<text x="1212" y="223.0" text-anchor="end" font-family="Arial" font-size="10" fill="#4b5563">0.305</text>
<line x1="1220" y1="273.5" x2="1698" y2="273.5" stroke="#e5e7eb"/>
<text x="1212" y="277.5" text-anchor="end" font-family="Arial" font-size="10" fill="#4b5563">0.128</text>
<line x1="1220" y1="328.0" x2="1698" y2="328.0" stroke="#e5e7eb"/>
<text x="1212" y="332.0" text-anchor="end" font-family="Arial" font-size="10" fill="#4b5563">-0.0487</text>
<polyline points="1220.0,293.7 1224.8,291.3 1229.7,272.0 1234.5,288.9 1239.3,298.5 1244.1,281.6 1249.0,286.5 1253.8,288.9 1258.6,293.7 1263.5,288.9 1268.3,288.9 1273.1,281.6 1277.9,293.7 1282.8,267.2 1287.6,300.9 1292.4,305.7 1297.3,288.9 1302.1,279.2 1306.9,305.7 1311.7,300.9 1316.6,288.9 1321.4,276.8 1326.2,298.5 1331.1,298.5 1335.9,288.9 1340.7,272.0 1345.5,298.5 1350.4,298.5 1355.2,286.5 1360.0,272.0 1364.8,308.1 1369.7,298.5 1374.5,291.3 1379.3,305.7 1384.2,296.1 1389.0,293.7 1393.8,288.9 1398.6,288.9 1403.5,296.1 1408.3,303.3 1413.1,313.0 1418.0,264.8 1422.8,298.5 1427.6,300.9 1432.4,296.1 1437.3,286.5 1442.1,279.2 1446.9,286.5 1451.8,288.9 1456.6,286.5 1461.4,313.0 1466.2,284.1 1471.1,298.5 1475.9,284.1 1480.7,288.9 1485.6,288.9 1490.4,284.1 1495.2,296.1 1500.0,286.5 1504.9,303.3 1509.7,303.3 1514.5,288.9 1519.4,308.1 1524.2,296.1 1529.0,281.6 1533.8,303.3 1538.7,274.4 1543.5,293.7 1548.3,284.1 1553.2,288.9 1558.0,296.1 1562.8,308.1 1567.6,286.5 1572.5,286.5 1577.3,293.7 1582.1,288.9 1586.9,298.5 1591.8,281.6 1596.6,269.6 1601.4,303.3 1606.3,303.3 1611.1,313.0 1615.9,286.5 1620.7,276.8 1625.6,300.9 1630.4,303.3 1635.2,298.5 1640.1,293.7 1644.9,298.5 1649.7,296.1 1654.5,300.9 1659.4,303.3 1664.2,313.0 1669.0,286.5 1673.9,300.9 1678.7,293.7 1683.5,300.9 1688.3,296.1 1693.2,293.7 1698.0,300.9" fill="none" stroke="#2563eb" stroke-width="2"/>
<polyline points="1220.0,233.5 1224.8,281.6 1229.7,247.9 1234.5,281.6 1239.3,288.9 1244.1,272.0 1249.0,243.1 1253.8,274.4 1258.6,272.0 1263.5,288.9 1268.3,288.9 1273.1,260.0 1277.9,272.0 1282.8,288.9 1287.6,264.8 1292.4,257.5 1297.3,272.0 1302.1,267.2 1306.9,264.8 1311.7,262.4 1316.6,243.1 1321.4,279.2 1326.2,286.5 1331.1,286.5 1335.9,288.9 1340.7,252.7 1345.5,245.5 1350.4,231.0 1355.2,286.5 1360.0,272.0 1364.8,260.0 1369.7,274.4 1374.5,243.1 1379.3,238.3 1384.2,269.6 1389.0,262.4 1393.8,245.5 1398.6,276.8 1403.5,252.7 1408.3,243.1 1413.1,281.6 1418.0,272.0 1422.8,250.3 1427.6,262.4 1432.4,260.0 1437.3,262.4 1442.1,260.0 1446.9,269.6 1451.8,257.5 1456.6,267.2" fill="none" stroke="#059669" stroke-width="2"/>
<polyline points="1220.0,255.1 1224.8,250.3 1229.7,223.8 1234.5,204.5 1239.3,226.2 1244.1,194.9 1249.0,192.5 1253.8,192.5 1258.6,182.9 1263.5,192.5 1268.3,144.3 1273.1,149.1 1277.9,166.0 1282.8,216.6 1287.6,180.5 1292.4,173.2 1297.3,197.3 1302.1,146.7 1306.9,151.5 1311.7,214.2 1316.6,170.8 1321.4,166.0 1326.2,180.5 1331.1,139.5 1335.9,202.1 1340.7,161.2 1345.5,190.1 1350.4,144.3 1355.2,170.8 1360.0,190.1 1364.8,166.0 1369.7,158.8 1374.5,156.4 1379.3,125.0 1384.2,144.3 1389.0,187.7 1393.8,197.3 1398.6,185.3 1403.5,175.6 1408.3,185.3 1413.1,141.9 1418.0,182.9 1422.8,170.8 1427.6,161.2 1432.4,168.4 1437.3,175.6 1442.1,175.6 1446.9,182.9 1451.8,158.8 1456.6,158.8" fill="none" stroke="#dc2626" stroke-width="2"/>
<line x1="1220" y1="328" x2="1698" y2="328" stroke="#374151"/>
<line x1="1220" y1="110" x2="1220" y2="328" stroke="#374151"/>
<text x="1459.0" y="356" text-anchor="middle" font-family="Arial" font-size="11">epoch / step</text>
<line x1="1220" y1="354" x2="1238" y2="354" stroke="#2563eb" stroke-width="3"/>
<text x="1243" y="358" font-family="Arial" font-size="10">alpha=0.33</text>
<line x1="1335" y1="354" x2="1353" y2="354" stroke="#059669" stroke-width="3"/>
<text x="1358" y="358" font-family="Arial" font-size="10">alpha=0.66</text>
<line x1="1450" y1="354" x2="1468" y2="354" stroke="#dc2626" stroke-width="3"/>
<text x="1473" y="358" font-family="Arial" font-size="10">alpha=1.00</text>
<text x="28" y="392" font-family="Arial" font-size="16" font-weight="bold">Code 2 usage fraction</text>
<line x1="80" y1="410.0" x2="558" y2="410.0" stroke="#e5e7eb"/>
<text x="72" y="414.0" text-anchor="end" font-family="Arial" font-size="10" fill="#4b5563">0.522</text>
<line x1="80" y1="464.5" x2="558" y2="464.5" stroke="#e5e7eb"/>
<text x="72" y="468.5" text-anchor="end" font-family="Arial" font-size="10" fill="#4b5563">0.386</text>
<line x1="80" y1="519.0" x2="558" y2="519.0" stroke="#e5e7eb"/>
<text x="72" y="523.0" text-anchor="end" font-family="Arial" font-size="10" fill="#4b5563">0.25</text>
<line x1="80" y1="573.5" x2="558" y2="573.5" stroke="#e5e7eb"/>
<text x="72" y="577.5" text-anchor="end" font-family="Arial" font-size="10" fill="#4b5563">0.114</text>
<line x1="80" y1="628.0" x2="558" y2="628.0" stroke="#e5e7eb"/>
<text x="72" y="632.0" text-anchor="end" font-family="Arial" font-size="10" fill="#4b5563">-0.0219</text>
<polyline points="80.0,613.0 84.8,493.9 89.7,519.0 94.5,503.3 99.3,540.9 104.1,515.9 109.0,556.6 113.8,519.0 118.6,509.6 123.5,540.9 128.3,503.3 133.1,556.6 137.9,528.4 142.8,537.8 147.6,528.4 152.4,540.9 157.3,503.3 162.1,550.3 166.9,493.9 171.7,500.2 176.6,490.8 181.4,509.6 186.2,540.9 191.1,515.9 195.9,531.5 200.7,503.3 205.5,540.9 210.4,525.3 215.2,528.4 220.0,519.0 224.8,506.5 229.7,487.7 234.5,503.3 239.3,493.9 244.2,550.3 249.0,515.9 253.8,562.9 258.6,509.6 263.5,503.3 268.3,509.6 273.1,497.1 278.0,519.0 282.8,519.0 287.6,503.3 292.4,537.8 297.3,528.4 302.1,497.1 306.9,547.2 311.8,515.9 316.6,534.7 321.4,550.3 326.2,531.5 331.1,537.8 335.9,519.0 340.7,559.7 345.6,531.5 350.4,490.8 355.2,493.9 360.0,497.1 364.9,487.7 369.7,515.9 374.5,531.5 379.4,506.5 384.2,497.1 389.0,515.9 393.8,525.3 398.7,525.3 403.5,497.1 408.3,519.0 413.2,478.3 418.0,497.1 422.8,481.4 427.6,490.8 432.5,525.3 437.3,515.9 442.1,519.0 446.9,472.0 451.8,519.0 456.6,522.1 461.4,522.1 466.3,497.1 471.1,506.5 475.9,500.2 480.7,553.5 485.6,525.3 490.4,487.7 495.2,525.3 500.1,544.1 504.9,515.9 509.7,503.3 514.5,487.7 519.4,512.7 524.2,547.2 529.0,540.9 533.9,515.9 538.7,506.5 543.5,525.3 548.3,497.1 553.2,525.3 558.0,506.5" fill="none" stroke="#2563eb" stroke-width="2"/>
<polyline points="80.0,519.0 84.8,556.6 89.7,493.9 94.5,509.6 99.3,515.9 104.1,503.3 109.0,506.5 113.8,525.3 118.6,465.8 123.5,522.1 128.3,487.7 133.1,500.2 137.9,468.9 142.8,465.8 147.6,515.9 152.4,531.5 157.3,506.5 162.1,484.5 166.9,481.4 171.7,525.3 176.6,500.2 181.4,478.3 186.2,478.3 191.1,512.7 195.9,478.3 200.7,497.1 205.5,484.5 210.4,553.5 215.2,481.4 220.0,500.2 224.8,475.1 229.7,425.0 234.5,512.7 239.3,537.8 244.2,475.1 249.0,493.9 253.8,519.0 258.6,509.6 263.5,525.3 268.3,493.9 273.1,500.2 278.0,525.3 282.8,456.4 287.6,481.4 292.4,497.1 297.3,490.8 302.1,512.7 306.9,472.0 311.8,506.5 316.6,515.9" fill="none" stroke="#059669" stroke-width="2"/>
<polyline points="80.0,484.5 84.8,525.3 89.7,572.2 94.5,537.8 99.3,553.5 104.1,534.7 109.0,519.0 113.8,519.0 118.6,569.1 123.5,562.9 128.3,553.5 133.1,559.7 137.9,566.0 142.8,566.0 147.6,562.9 152.4,572.2 157.3,578.5 162.1,553.5 166.9,569.1 171.7,547.2 176.6,566.0 181.4,581.6 186.2,553.5 191.1,572.2 195.9,562.9 200.7,544.1 205.5,559.7 210.4,572.2 215.2,562.9 220.0,569.1 224.8,591.0 229.7,578.5 234.5,594.2 239.3,566.0 244.2,547.2 249.0,562.9 253.8,537.8 258.6,572.2 263.5,553.5 268.3,500.2 273.1,584.8 278.0,559.7 282.8,578.5 287.6,581.6 292.4,559.7 297.3,581.6 302.1,562.9 306.9,559.7 311.8,537.8 316.6,531.5" fill="none" stroke="#dc2626" stroke-width="2"/>
<line x1="80" y1="628" x2="558" y2="628" stroke="#374151"/>
<line x1="80" y1="410" x2="80" y2="628" stroke="#374151"/>
<text x="319.0" y="656" text-anchor="middle" font-family="Arial" font-size="11">epoch / step</text>
<line x1="80" y1="654" x2="98" y2="654" stroke="#2563eb" stroke-width="3"/>
<text x="103" y="658" font-family="Arial" font-size="10">alpha=0.33</text>
<line x1="195" y1="654" x2="213" y2="654" stroke="#059669" stroke-width="3"/>
<text x="218" y="658" font-family="Arial" font-size="10">alpha=0.66</text>
<line x1="310" y1="654" x2="328" y2="654" stroke="#dc2626" stroke-width="3"/>
<text x="333" y="658" font-family="Arial" font-size="10">alpha=1.00</text>
<text x="598" y="392" font-family="Arial" font-size="16" font-weight="bold">Code 3 usage fraction</text>
<line x1="650" y1="410.0" x2="1128" y2="410.0" stroke="#e5e7eb"/>
<text x="642" y="414.0" text-anchor="end" font-family="Arial" font-size="10" fill="#4b5563">0.27</text>
<line x1="650" y1="464.5" x2="1128" y2="464.5" stroke="#e5e7eb"/>
<text x="642" y="468.5" text-anchor="end" font-family="Arial" font-size="10" fill="#4b5563">0.198</text>
<line x1="650" y1="519.0" x2="1128" y2="519.0" stroke="#e5e7eb"/>
<text x="642" y="523.0" text-anchor="end" font-family="Arial" font-size="10" fill="#4b5563">0.125</text>
<line x1="650" y1="573.5" x2="1128" y2="573.5" stroke="#e5e7eb"/>
<text x="642" y="577.5" text-anchor="end" font-family="Arial" font-size="10" fill="#4b5563">0.0525</text>
<line x1="650" y1="628.0" x2="1128" y2="628.0" stroke="#e5e7eb"/>
<text x="642" y="632.0" text-anchor="end" font-family="Arial" font-size="10" fill="#4b5563">-0.02</text>
<polyline points="650.0,589.5 654.8,583.6 659.7,613.0 664.5,607.1 669.3,595.3 674.1,607.1 679.0,601.2 683.8,607.1 688.6,560.1 693.5,566.0 698.3,542.5 703.1,548.4 707.9,530.7 712.8,571.9 717.6,542.5 722.4,536.6 727.3,530.7 732.1,507.3 736.9,554.2 741.7,554.2 746.6,548.4 751.4,554.2 756.2,519.0 761.1,513.1 765.9,524.9 770.7,542.5 775.5,524.9 780.4,548.4 785.2,513.1 790.0,554.2 794.8,554.2 799.7,530.7 804.5,536.6 809.3,530.7 814.2,524.9 819.0,507.3 823.8,519.0 828.6,566.0 833.5,495.5 838.3,530.7 843.1,489.6 848.0,513.1 852.8,483.8 857.6,566.0 862.4,542.5 867.3,524.9 872.1,554.2 876.9,519.0 881.8,495.5 886.6,501.4 891.4,524.9 896.2,513.1 901.1,530.7 905.9,542.5 910.7,583.6 915.6,524.9 920.4,542.5 925.2,536.6 930.0,513.1 934.9,583.6 939.7,519.0 944.5,542.5 949.4,548.4 954.2,495.5 959.0,542.5 963.8,489.6 968.7,530.7 973.5,554.2 978.3,560.1 983.2,530.7 988.0,530.7 992.8,513.1 997.6,536.6 1002.5,501.4 1007.3,542.5 1012.1,501.4 1016.9,566.0 1021.8,524.9 1026.6,513.1 1031.4,536.6 1036.3,477.9 1041.1,548.4 1045.9,560.1 1050.7,548.4 1055.6,489.6 1060.4,560.1 1065.2,501.4 1070.1,501.4 1074.9,536.6 1079.7,542.5 1084.5,554.2 1089.4,536.6 1094.2,454.4 1099.0,519.0 1103.9,507.3 1108.7,507.3 1113.5,566.0 1118.3,560.1 1123.2,513.1 1128.0,542.5" fill="none" stroke="#2563eb" stroke-width="2"/>
<polyline points="650.0,425.0 654.8,554.2 659.7,542.5 664.5,483.8 669.3,507.3 674.1,513.1 679.0,560.1 683.8,524.9 688.6,560.1 693.5,548.4 698.3,595.3 703.1,566.0 707.9,554.2 712.8,571.9 717.6,513.1 722.4,542.5 727.3,536.6 732.1,566.0 736.9,530.7 741.7,548.4 746.6,524.9 751.4,571.9 756.2,560.1 761.1,548.4 765.9,577.7 770.7,530.7 775.5,571.9 780.4,507.3 785.2,560.1 790.0,589.5 794.8,589.5 799.7,566.0 804.5,548.4 809.3,577.7 814.2,560.1 819.0,536.6 823.8,536.6 828.6,560.1 833.5,530.7 838.3,530.7 843.1,583.6 848.0,560.1 852.8,566.0 857.6,554.2 862.4,566.0 867.3,530.7 872.1,513.1 876.9,583.6 881.8,536.6 886.6,548.4" fill="none" stroke="#059669" stroke-width="2"/>
<polyline points="650.0,560.1 654.8,577.7 659.7,542.5 664.5,530.7 669.3,566.0 674.1,548.4 679.0,566.0 683.8,548.4 688.6,483.8 693.5,571.9 698.3,519.0 703.1,554.2 707.9,566.0 712.8,548.4 717.6,548.4 722.4,577.7 727.3,460.3 732.1,589.5 736.9,548.4 741.7,577.7 746.6,519.0 751.4,542.5 756.2,530.7 761.1,554.2 765.9,589.5 770.7,607.1 775.5,507.3 780.4,542.5 785.2,548.4 790.0,577.7 794.8,560.1 799.7,548.4 804.5,571.9 809.3,583.6 814.2,583.6 819.0,554.2 823.8,571.9 828.6,536.6 833.5,542.5 838.3,566.0 843.1,571.9 848.0,583.6 852.8,536.6 857.6,536.6 862.4,554.2 867.3,483.8 872.1,560.1 876.9,507.3 881.8,524.9 886.6,542.5" fill="none" stroke="#dc2626" stroke-width="2"/>
<line x1="650" y1="628" x2="1128" y2="628" stroke="#374151"/>
<line x1="650" y1="410" x2="650" y2="628" stroke="#374151"/>
<text x="889.0" y="656" text-anchor="middle" font-family="Arial" font-size="11">epoch / step</text>
<line x1="650" y1="654" x2="668" y2="654" stroke="#2563eb" stroke-width="3"/>
<text x="673" y="658" font-family="Arial" font-size="10">alpha=0.33</text>
<line x1="765" y1="654" x2="783" y2="654" stroke="#059669" stroke-width="3"/>
<text x="788" y="658" font-family="Arial" font-size="10">alpha=0.66</text>
<line x1="880" y1="654" x2="898" y2="654" stroke="#dc2626" stroke-width="3"/>
<text x="903" y="658" font-family="Arial" font-size="10">alpha=1.00</text>
<text x="1168" y="392" font-family="Arial" font-size="16" font-weight="bold">Code 4 usage fraction</text>
<line x1="1220" y1="410.0" x2="1698" y2="410.0" stroke="#e5e7eb"/>
<text x="1212" y="414.0" text-anchor="end" font-family="Arial" font-size="10" fill="#4b5563">0.563</text>
<line x1="1220" y1="464.5" x2="1698" y2="464.5" stroke="#e5e7eb"/>
<text x="1212" y="468.5" text-anchor="end" font-family="Arial" font-size="10" fill="#4b5563">0.42</text>
<line x1="1220" y1="519.0" x2="1698" y2="519.0" stroke="#e5e7eb"/>
<text x="1212" y="523.0" text-anchor="end" font-family="Arial" font-size="10" fill="#4b5563">0.277</text>
<line x1="1220" y1="573.5" x2="1698" y2="573.5" stroke="#e5e7eb"/>
<text x="1212" y="577.5" text-anchor="end" font-family="Arial" font-size="10" fill="#4b5563">0.135</text>
<line x1="1220" y1="628.0" x2="1698" y2="628.0" stroke="#e5e7eb"/>
<text x="1212" y="632.0" text-anchor="end" font-family="Arial" font-size="10" fill="#4b5563">-0.00813</text>
<polyline points="1220.0,613.0 1224.8,472.8 1229.7,541.4 1234.5,568.2 1239.3,535.4 1244.1,517.5 1249.0,490.7 1253.8,475.7 1258.6,520.5 1263.5,463.8 1268.3,517.5 1273.1,472.8 1277.9,526.5 1282.8,502.6 1287.6,466.8 1292.4,469.8 1297.3,511.5 1302.1,487.7 1306.9,517.5 1311.7,502.6 1316.6,487.7 1321.4,496.6 1326.2,481.7 1331.1,499.6 1335.9,481.7 1340.7,496.6 1345.5,490.7 1350.4,463.8 1355.2,535.4 1360.0,490.7 1364.8,493.6 1369.7,523.5 1374.5,508.6 1379.3,532.4 1384.2,472.8 1389.0,481.7 1393.8,425.0 1398.6,526.5 1403.5,505.6 1408.3,475.7 1413.1,523.5 1418.0,529.4 1422.8,460.8 1427.6,508.6 1432.4,466.8 1437.3,481.7 1442.1,505.6 1446.9,469.8 1451.8,529.4 1456.6,499.6 1461.4,434.0 1466.2,496.6 1471.1,451.9 1475.9,502.6 1480.7,451.9 1485.6,508.6 1490.4,547.3 1495.2,508.6 1500.0,496.6 1504.9,511.5 1509.7,460.8 1514.5,502.6 1519.4,493.6 1524.2,508.6 1529.0,508.6 1533.8,502.6 1538.7,478.7 1543.5,514.5 1548.3,484.7 1553.2,517.5 1558.0,490.7 1562.8,511.5 1567.6,529.4 1572.5,511.5 1577.3,472.8 1582.1,496.6 1586.9,514.5 1591.8,487.7 1596.6,520.5 1601.4,502.6 1606.3,523.5 1611.1,451.9 1615.9,526.5 1620.7,469.8 1625.6,508.6 1630.4,505.6 1635.2,493.6 1640.1,469.8 1644.9,484.7 1649.7,466.8 1654.5,469.8 1659.4,478.7 1664.2,466.8 1669.0,472.8 1673.9,487.7 1678.7,487.7 1683.5,460.8 1688.3,496.6 1693.2,460.8 1698.0,484.7" fill="none" stroke="#2563eb" stroke-width="2"/>
<polyline points="1220.0,547.3 1224.8,547.3 1229.7,559.3 1234.5,568.2 1239.3,565.2 1244.1,568.2 1249.0,553.3 1253.8,550.3 1258.6,571.2 1263.5,496.6 1268.3,541.4 1273.1,544.4 1277.9,541.4 1282.8,544.4 1287.6,523.5 1292.4,547.3 1297.3,568.2 1302.1,520.5 1306.9,559.3 1311.7,562.3 1316.6,565.2 1321.4,541.4 1326.2,538.4 1331.1,559.3 1335.9,523.5 1340.7,541.4 1345.5,571.2 1350.4,550.3 1355.2,535.4 1360.0,529.4 1364.8,565.2 1369.7,580.2 1374.5,559.3 1379.3,502.6 1384.2,577.2 1389.0,532.4 1393.8,520.5 1398.6,523.5 1403.5,550.3 1408.3,556.3 1413.1,529.4 1418.0,517.5 1422.8,550.3 1427.6,556.3 1432.4,553.3 1437.3,586.1 1442.1,544.4 1446.9,541.4 1451.8,559.3 1456.6,535.4" fill="none" stroke="#059669" stroke-width="2"/>
<polyline points="1220.0,547.3 1224.8,514.5 1229.7,559.3 1234.5,568.2 1239.3,493.6 1244.1,589.1 1249.0,562.3 1253.8,571.2 1258.6,589.1 1263.5,556.3 1268.3,598.1 1273.1,562.3 1277.9,595.1 1282.8,508.6 1287.6,538.4 1292.4,541.4 1297.3,547.3 1302.1,577.2 1306.9,586.1 1311.7,532.4 1316.6,553.3 1321.4,583.1 1326.2,565.2 1331.1,583.1 1335.9,520.5 1340.7,547.3 1345.5,589.1 1350.4,550.3 1355.2,580.2 1360.0,532.4 1364.8,511.5 1369.7,559.3 1374.5,553.3 1379.3,589.1 1384.2,610.0 1389.0,577.2 1393.8,553.3 1398.6,526.5 1403.5,592.1 1408.3,592.1 1413.1,541.4 1418.0,547.3 1422.8,526.5 1427.6,550.3 1432.4,544.4 1437.3,553.3 1442.1,571.2 1446.9,550.3 1451.8,577.2 1456.6,592.1" fill="none" stroke="#dc2626" stroke-width="2"/>
<line x1="1220" y1="628" x2="1698" y2="628" stroke="#374151"/>
<line x1="1220" y1="410" x2="1220" y2="628" stroke="#374151"/>
<text x="1459.0" y="656" text-anchor="middle" font-family="Arial" font-size="11">epoch / step</text>
<line x1="1220" y1="654" x2="1238" y2="654" stroke="#2563eb" stroke-width="3"/>
<text x="1243" y="658" font-family="Arial" font-size="10">alpha=0.33</text>
<line x1="1335" y1="654" x2="1353" y2="654" stroke="#059669" stroke-width="3"/>
<text x="1358" y="658" font-family="Arial" font-size="10">alpha=0.66</text>
<line x1="1450" y1="654" x2="1468" y2="654" stroke="#dc2626" stroke-width="3"/>
<text x="1473" y="658" font-family="Arial" font-size="10">alpha=1.00</text>
<text x="28" y="692" font-family="Arial" font-size="16" font-weight="bold">Code 5 usage fraction</text>
<line x1="80" y1="710.0" x2="558" y2="710.0" stroke="#e5e7eb"/>
<text x="72" y="714.0" text-anchor="end" font-family="Arial" font-size="10" fill="#4b5563">0.92</text>
<line x1="80" y1="764.5" x2="558" y2="764.5" stroke="#e5e7eb"/>
<text x="72" y="768.5" text-anchor="end" font-family="Arial" font-size="10" fill="#4b5563">0.673</text>
<line x1="80" y1="819.0" x2="558" y2="819.0" stroke="#e5e7eb"/>
<text x="72" y="823.0" text-anchor="end" font-family="Arial" font-size="10" fill="#4b5563">0.426</text>
<line x1="80" y1="873.5" x2="558" y2="873.5" stroke="#e5e7eb"/>
<text x="72" y="877.5" text-anchor="end" font-family="Arial" font-size="10" fill="#4b5563">0.179</text>
<line x1="80" y1="928.0" x2="558" y2="928.0" stroke="#e5e7eb"/>
<text x="72" y="932.0" text-anchor="end" font-family="Arial" font-size="10" fill="#4b5563">-0.0681</text>
<polyline points="80.0,725.0 84.8,880.2 89.7,833.7 94.5,826.8 99.3,850.9 104.1,857.8 109.0,849.2 113.8,887.1 118.6,875.0 123.5,885.4 128.3,875.0 133.1,869.9 137.9,890.6 142.8,876.8 147.6,883.7 152.4,878.5 157.3,888.8 162.1,883.7 166.9,878.5 171.7,894.0 176.6,897.4 181.4,897.4 186.2,878.5 191.1,888.8 195.9,894.0 200.7,902.6 205.5,892.3 210.4,892.3 215.2,890.6 220.0,890.6 224.8,887.1 229.7,892.3 234.5,900.9 239.3,881.9 244.2,887.1 249.0,894.0 253.8,894.0 258.6,888.8 263.5,888.8 268.3,888.8 273.1,881.9 278.0,880.2 282.8,899.2 287.6,885.4 292.4,894.0 297.3,888.8 302.1,883.7 306.9,892.3 311.8,890.6 316.6,894.0 321.4,883.7 326.2,888.8 331.1,892.3 335.9,888.8 340.7,899.2 345.6,888.8 350.4,899.2 355.2,895.7 360.0,894.0 364.9,894.0 369.7,902.6 374.5,881.9 379.4,892.3 384.2,894.0 389.0,885.4 393.8,890.6 398.7,897.4 403.5,881.9 408.3,892.3 413.2,887.1 418.0,887.1 422.8,881.9 427.6,888.8 432.5,885.4 437.3,888.8 442.1,890.6 446.9,888.8 451.8,899.2 456.6,887.1 461.4,878.5 466.3,894.0 471.1,895.7 475.9,887.1 480.7,897.4 485.6,875.0 490.4,887.1 495.2,888.8 500.1,897.4 504.9,892.3 509.7,906.1 514.5,902.6 519.4,892.3 524.2,890.6 529.0,895.7 533.9,895.7 538.7,883.7 543.5,885.4 548.3,885.4 553.2,895.7 558.0,906.1" fill="none" stroke="#2563eb" stroke-width="2"/>
<polyline points="80.0,906.1 84.8,894.0 89.7,913.0 94.5,899.2 99.3,911.2 104.1,906.1 109.0,904.3 113.8,902.6 118.6,911.2 123.5,913.0 128.3,906.1 133.1,904.3 137.9,909.5 142.8,902.6 147.6,909.5 152.4,913.0 157.3,895.7 162.1,907.8 166.9,907.8 171.7,904.3 176.6,911.2 181.4,902.6 186.2,902.6 191.1,902.6 195.9,906.1 200.7,904.3 205.5,904.3 210.4,909.5 215.2,904.3 220.0,911.2 224.8,900.9 229.7,906.1 234.5,909.5 239.3,902.6 244.2,902.6 249.0,902.6 253.8,907.8 258.6,899.2 263.5,906.1 268.3,911.2 273.1,911.2 278.0,906.1 282.8,899.2 287.6,904.3 292.4,911.2 297.3,906.1 302.1,911.2 306.9,899.2 311.8,897.4 316.6,899.2" fill="none" stroke="#059669" stroke-width="2"/>
<polyline points="80.0,907.8 84.8,892.3 89.7,850.9 94.5,887.1 99.3,883.7 104.1,876.8 109.0,895.7 113.8,888.8 118.6,878.5 123.5,868.1 128.3,895.7 133.1,900.9 137.9,857.8 142.8,878.5 147.6,887.1 152.4,880.2 157.3,890.6 162.1,883.7 166.9,878.5 171.7,869.9 176.6,894.0 181.4,869.9 186.2,887.1 191.1,885.4 195.9,873.3 200.7,892.3 205.5,866.4 210.4,902.6 215.2,876.8 220.0,876.8 224.8,895.7 229.7,881.9 234.5,876.8 239.3,885.4 244.2,873.3 249.0,863.0 253.8,881.9 258.6,888.8 263.5,869.9 268.3,885.4 273.1,897.4 278.0,873.3 282.8,897.4 287.6,888.8 292.4,892.3 297.3,890.6 302.1,873.3 306.9,897.4 311.8,906.1 316.6,892.3" fill="none" stroke="#dc2626" stroke-width="2"/>
<line x1="80" y1="928" x2="558" y2="928" stroke="#374151"/>
<line x1="80" y1="710" x2="80" y2="928" stroke="#374151"/>
<text x="319.0" y="956" text-anchor="middle" font-family="Arial" font-size="11">epoch / step</text>
<line x1="80" y1="954" x2="98" y2="954" stroke="#2563eb" stroke-width="3"/>
<text x="103" y="958" font-family="Arial" font-size="10">alpha=0.33</text>
<line x1="195" y1="954" x2="213" y2="954" stroke="#059669" stroke-width="3"/>
<text x="218" y="958" font-family="Arial" font-size="10">alpha=0.66</text>
<line x1="310" y1="954" x2="328" y2="954" stroke="#dc2626" stroke-width="3"/>
<text x="333" y="958" font-family="Arial" font-size="10">alpha=1.00</text>
<text x="598" y="692" font-family="Arial" font-size="16" font-weight="bold">Dead code count</text>
<line x1="650" y1="710.0" x2="1128" y2="710.0" stroke="#e5e7eb"/>
<text x="642" y="714.0" text-anchor="end" font-family="Arial" font-size="10" fill="#4b5563">1.08</text>
<line x1="650" y1="764.5" x2="1128" y2="764.5" stroke="#e5e7eb"/>
<text x="642" y="768.5" text-anchor="end" font-family="Arial" font-size="10" fill="#4b5563">0.79</text>
<line x1="650" y1="819.0" x2="1128" y2="819.0" stroke="#e5e7eb"/>
<text x="642" y="823.0" text-anchor="end" font-family="Arial" font-size="10" fill="#4b5563">0.5</text>
<line x1="650" y1="873.5" x2="1128" y2="873.5" stroke="#e5e7eb"/>
<text x="642" y="877.5" text-anchor="end" font-family="Arial" font-size="10" fill="#4b5563">0.21</text>
<line x1="650" y1="928.0" x2="1128" y2="928.0" stroke="#e5e7eb"/>
<text x="642" y="932.0" text-anchor="end" font-family="Arial" font-size="10" fill="#4b5563">-0.08</text>
<polyline points="650.0,913.0 654.8,913.0 659.7,725.0 664.5,913.0 669.3,913.0 674.1,913.0 679.0,913.0 683.8,913.0 688.6,913.0 693.5,913.0 698.3,913.0 703.1,913.0 707.9,913.0 712.8,913.0 717.6,913.0 722.4,913.0 727.3,913.0 732.1,913.0 736.9,913.0 741.7,913.0 746.6,913.0 751.4,913.0 756.2,913.0 761.1,913.0 765.9,913.0 770.7,913.0 775.5,913.0 780.4,913.0 785.2,913.0 790.0,913.0 794.8,913.0 799.7,913.0 804.5,913.0 809.3,913.0 814.2,913.0 819.0,913.0 823.8,913.0 828.6,913.0 833.5,913.0 838.3,913.0 843.1,725.0 848.0,913.0 852.8,913.0 857.6,913.0 862.4,913.0 867.3,913.0 872.1,913.0 876.9,913.0 881.8,913.0 886.6,913.0 891.4,725.0 896.2,913.0 901.1,913.0 905.9,913.0 910.7,913.0 915.6,913.0 920.4,913.0 925.2,913.0 930.0,913.0 934.9,913.0 939.7,913.0 944.5,913.0 949.4,913.0 954.2,913.0 959.0,913.0 963.8,913.0 968.7,913.0 973.5,913.0 978.3,913.0 983.2,913.0 988.0,913.0 992.8,913.0 997.6,913.0 1002.5,913.0 1007.3,913.0 1012.1,913.0 1016.9,913.0 1021.8,913.0 1026.6,913.0 1031.4,913.0 1036.3,913.0 1041.1,725.0 1045.9,913.0 1050.7,913.0 1055.6,913.0 1060.4,913.0 1065.2,913.0 1070.1,913.0 1074.9,913.0 1079.7,913.0 1084.5,913.0 1089.4,913.0 1094.2,725.0 1099.0,913.0 1103.9,913.0 1108.7,913.0 1113.5,913.0 1118.3,913.0 1123.2,913.0 1128.0,913.0" fill="none" stroke="#2563eb" stroke-width="2"/>
<polyline points="650.0,913.0 654.8,913.0 659.7,725.0 664.5,913.0 669.3,913.0 674.1,913.0 679.0,913.0 683.8,913.0 688.6,913.0 693.5,725.0 698.3,913.0 703.1,913.0 707.9,913.0 712.8,913.0 717.6,913.0 722.4,725.0 727.3,913.0 732.1,913.0 736.9,913.0 741.7,913.0 746.6,913.0 751.4,913.0 756.2,913.0 761.1,913.0 765.9,913.0 770.7,913.0 775.5,913.0 780.4,913.0 785.2,913.0 790.0,913.0 794.8,913.0 799.7,913.0 804.5,913.0 809.3,913.0 814.2,913.0 819.0,913.0 823.8,913.0 828.6,913.0 833.5,913.0 838.3,913.0 843.1,913.0 848.0,913.0 852.8,913.0 857.6,913.0 862.4,913.0 867.3,913.0 872.1,913.0 876.9,913.0 881.8,913.0 886.6,913.0" fill="none" stroke="#059669" stroke-width="2"/>
<polyline points="650.0,913.0 654.8,913.0 659.7,913.0 664.5,913.0 669.3,913.0 674.1,913.0 679.0,913.0 683.8,913.0 688.6,913.0 693.5,913.0 698.3,913.0 703.1,913.0 707.9,725.0 712.8,913.0 717.6,725.0 722.4,913.0 727.3,913.0 732.1,913.0 736.9,913.0 741.7,913.0 746.6,913.0 751.4,913.0 756.2,913.0 761.1,913.0 765.9,913.0 770.7,913.0 775.5,913.0 780.4,725.0 785.2,913.0 790.0,913.0 794.8,913.0 799.7,725.0 804.5,913.0 809.3,725.0 814.2,913.0 819.0,913.0 823.8,913.0 828.6,725.0 833.5,913.0 838.3,913.0 843.1,913.0 848.0,913.0 852.8,913.0 857.6,913.0 862.4,725.0 867.3,725.0 872.1,913.0 876.9,913.0 881.8,913.0 886.6,913.0" fill="none" stroke="#dc2626" stroke-width="2"/>
<line x1="650" y1="928" x2="1128" y2="928" stroke="#374151"/>
<line x1="650" y1="710" x2="650" y2="928" stroke="#374151"/>
<text x="889.0" y="956" text-anchor="middle" font-family="Arial" font-size="11">epoch / step</text>
<line x1="650" y1="954" x2="668" y2="954" stroke="#2563eb" stroke-width="3"/>
<text x="673" y="958" font-family="Arial" font-size="10">alpha=0.33</text>
<line x1="765" y1="954" x2="783" y2="954" stroke="#059669" stroke-width="3"/>
<text x="788" y="958" font-family="Arial" font-size="10">alpha=0.66</text>
<line x1="880" y1="954" x2="898" y2="954" stroke="#dc2626" stroke-width="3"/>
<text x="903" y="958" font-family="Arial" font-size="10">alpha=1.00</text>
<text x="1168" y="692" font-family="Arial" font-size="16" font-weight="bold">Max dead-code streak</text>
<line x1="1220" y1="710.0" x2="1698" y2="710.0" stroke="#e5e7eb"/>
<text x="1212" y="714.0" text-anchor="end" font-family="Arial" font-size="10" fill="#4b5563">2.16</text>
<line x1="1220" y1="764.5" x2="1698" y2="764.5" stroke="#e5e7eb"/>
<text x="1212" y="768.5" text-anchor="end" font-family="Arial" font-size="10" fill="#4b5563">1.58</text>
<line x1="1220" y1="819.0" x2="1698" y2="819.0" stroke="#e5e7eb"/>
<text x="1212" y="823.0" text-anchor="end" font-family="Arial" font-size="10" fill="#4b5563">1</text>
<line x1="1220" y1="873.5" x2="1698" y2="873.5" stroke="#e5e7eb"/>
<text x="1212" y="877.5" text-anchor="end" font-family="Arial" font-size="10" fill="#4b5563">0.42</text>
<line x1="1220" y1="928.0" x2="1698" y2="928.0" stroke="#e5e7eb"/>
<text x="1212" y="932.0" text-anchor="end" font-family="Arial" font-size="10" fill="#4b5563">-0.16</text>
<polyline points="1220.0,913.0 1224.8,913.0 1229.7,819.0 1234.5,913.0 1239.3,913.0 1244.1,913.0 1249.0,913.0 1253.8,913.0 1258.6,913.0 1263.5,913.0 1268.3,913.0 1273.1,913.0 1277.9,913.0 1282.8,913.0 1287.6,913.0 1292.4,913.0 1297.3,913.0 1302.1,913.0 1306.9,913.0 1311.7,913.0 1316.6,913.0 1321.4,913.0 1326.2,913.0 1331.1,913.0 1335.9,913.0 1340.7,913.0 1345.5,913.0 1350.4,913.0 1355.2,913.0 1360.0,913.0 1364.8,913.0 1369.7,913.0 1374.5,913.0 1379.3,913.0 1384.2,913.0 1389.0,913.0 1393.8,913.0 1398.6,913.0 1403.5,913.0 1408.3,913.0 1413.1,819.0 1418.0,913.0 1422.8,913.0 1427.6,913.0 1432.4,913.0 1437.3,913.0 1442.1,913.0 1446.9,913.0 1451.8,913.0 1456.6,913.0 1461.4,819.0 1466.2,913.0 1471.1,913.0 1475.9,913.0 1480.7,913.0 1485.6,913.0 1490.4,913.0 1495.2,913.0 1500.0,913.0 1504.9,913.0 1509.7,913.0 1514.5,913.0 1519.4,913.0 1524.2,913.0 1529.0,913.0 1533.8,913.0 1538.7,913.0 1543.5,913.0 1548.3,913.0 1553.2,913.0 1558.0,913.0 1562.8,913.0 1567.6,913.0 1572.5,913.0 1577.3,913.0 1582.1,913.0 1586.9,913.0 1591.8,913.0 1596.6,913.0 1601.4,913.0 1606.3,913.0 1611.1,819.0 1615.9,913.0 1620.7,913.0 1625.6,913.0 1630.4,913.0 1635.2,913.0 1640.1,913.0 1644.9,913.0 1649.7,913.0 1654.5,913.0 1659.4,913.0 1664.2,819.0 1669.0,913.0 1673.9,913.0 1678.7,913.0 1683.5,913.0 1688.3,913.0 1693.2,913.0 1698.0,913.0" fill="none" stroke="#2563eb" stroke-width="2"/>
<polyline points="1220.0,913.0 1224.8,913.0 1229.7,819.0 1234.5,913.0 1239.3,913.0 1244.1,913.0 1249.0,913.0 1253.8,913.0 1258.6,913.0 1263.5,819.0 1268.3,913.0 1273.1,913.0 1277.9,913.0 1282.8,913.0 1287.6,913.0 1292.4,819.0 1297.3,913.0 1302.1,913.0 1306.9,913.0 1311.7,913.0 1316.6,913.0 1321.4,913.0 1326.2,913.0 1331.1,913.0 1335.9,913.0 1340.7,913.0 1345.5,913.0 1350.4,913.0 1355.2,913.0 1360.0,913.0 1364.8,913.0 1369.7,913.0 1374.5,913.0 1379.3,913.0 1384.2,913.0 1389.0,913.0 1393.8,913.0 1398.6,913.0 1403.5,913.0 1408.3,913.0 1413.1,913.0 1418.0,913.0 1422.8,913.0 1427.6,913.0 1432.4,913.0 1437.3,913.0 1442.1,913.0 1446.9,913.0 1451.8,913.0 1456.6,913.0" fill="none" stroke="#059669" stroke-width="2"/>
<polyline points="1220.0,913.0 1224.8,913.0 1229.7,913.0 1234.5,913.0 1239.3,913.0 1244.1,913.0 1249.0,913.0 1253.8,913.0 1258.6,913.0 1263.5,913.0 1268.3,913.0 1273.1,913.0 1277.9,819.0 1282.8,913.0 1287.6,819.0 1292.4,913.0 1297.3,913.0 1302.1,913.0 1306.9,913.0 1311.7,913.0 1316.6,913.0 1321.4,913.0 1326.2,913.0 1331.1,913.0 1335.9,913.0 1340.7,913.0 1345.5,913.0 1350.4,819.0 1355.2,913.0 1360.0,913.0 1364.8,913.0 1369.7,819.0 1374.5,913.0 1379.3,819.0 1384.2,913.0 1389.0,913.0 1393.8,913.0 1398.6,819.0 1403.5,913.0 1408.3,913.0 1413.1,913.0 1418.0,913.0 1422.8,913.0 1427.6,913.0 1432.4,819.0 1437.3,725.0 1442.1,913.0 1446.9,913.0 1451.8,913.0 1456.6,913.0" fill="none" stroke="#dc2626" stroke-width="2"/>
<line x1="1220" y1="928" x2="1698" y2="928" stroke="#374151"/>
<line x1="1220" y1="710" x2="1220" y2="928" stroke="#374151"/>
<text x="1459.0" y="956" text-anchor="middle" font-family="Arial" font-size="11">epoch / step</text>
<line x1="1220" y1="954" x2="1238" y2="954" stroke="#2563eb" stroke-width="3"/>
<text x="1243" y="958" font-family="Arial" font-size="10">alpha=0.33</text>
<line x1="1335" y1="954" x2="1353" y2="954" stroke="#059669" stroke-width="3"/>
<text x="1358" y="958" font-family="Arial" font-size="10">alpha=0.66</text>
<line x1="1450" y1="954" x2="1468" y2="954" stroke="#dc2626" stroke-width="3"/>
<text x="1473" y="958" font-family="Arial" font-size="10">alpha=1.00</text>
<text x="28" y="992" font-family="Arial" font-size="16" font-weight="bold">Codebook cosine mean</text>
<line x1="80" y1="1010.0" x2="558" y2="1010.0" stroke="#e5e7eb"/>
<text x="72" y="1014.0" text-anchor="end" font-family="Arial" font-size="10" fill="#4b5563">0.782</text>
<line x1="80" y1="1064.5" x2="558" y2="1064.5" stroke="#e5e7eb"/>
<text x="72" y="1068.5" text-anchor="end" font-family="Arial" font-size="10" fill="#4b5563">0.598</text>
<line x1="80" y1="1119.0" x2="558" y2="1119.0" stroke="#e5e7eb"/>
<text x="72" y="1123.0" text-anchor="end" font-family="Arial" font-size="10" fill="#4b5563">0.413</text>
<line x1="80" y1="1173.5" x2="558" y2="1173.5" stroke="#e5e7eb"/>
<text x="72" y="1177.5" text-anchor="end" font-family="Arial" font-size="10" fill="#4b5563">0.229</text>
<line x1="80" y1="1228.0" x2="558" y2="1228.0" stroke="#e5e7eb"/>
<text x="72" y="1232.0" text-anchor="end" font-family="Arial" font-size="10" fill="#4b5563">0.0444</text>
<polyline points="80.0,1028.7 84.8,1029.8 89.7,1033.0 94.5,1037.6 99.3,1043.3 104.1,1050.1 109.0,1058.0 113.8,1067.2 118.6,1077.3 123.5,1088.1 128.3,1098.1 133.1,1107.8 137.9,1116.7 142.8,1124.5 147.6,1131.2 152.4,1137.4 157.3,1143.5 162.1,1148.2 166.9,1152.9 171.7,1157.0 176.6,1161.0 181.4,1164.6 186.2,1167.8 191.1,1171.2 195.9,1173.7 200.7,1176.3 205.5,1178.7 210.4,1181.2 215.2,1183.5 220.0,1185.1 224.8,1186.9 229.7,1188.5 234.5,1190.0 239.3,1191.4 244.2,1192.7 249.0,1194.2 253.8,1195.4 258.6,1196.4 263.5,1197.2 268.3,1198.0 273.1,1199.0 278.0,1199.9 282.8,1200.6 287.6,1201.2 292.4,1201.8 297.3,1202.6 302.1,1203.3 306.9,1203.9 311.8,1204.5 316.6,1205.1 321.4,1205.4 326.2,1205.8 331.1,1206.3 335.9,1206.9 340.7,1207.3 345.6,1207.7 350.4,1208.0 355.2,1208.4 360.0,1208.7 364.9,1209.0 369.7,1209.2 374.5,1209.6 379.4,1209.9 384.2,1210.1 389.0,1210.4 393.8,1210.5 398.7,1210.8 403.5,1210.9 408.3,1211.1 413.2,1211.2 418.0,1211.3 422.8,1211.4 427.6,1211.6 432.5,1211.7 437.3,1211.8 442.1,1211.9 446.9,1212.0 451.8,1212.1 456.6,1212.2 461.4,1212.3 466.3,1212.3 471.1,1212.4 475.9,1212.5 480.7,1212.5 485.6,1212.5 490.4,1212.6 495.2,1212.6 500.1,1212.6 504.9,1212.7 509.7,1212.7 514.5,1212.8 519.4,1212.8 524.2,1212.8 529.0,1212.9 533.9,1212.9 538.7,1212.9 543.5,1212.9 548.3,1212.9 553.2,1213.0 558.0,1213.0" fill="none" stroke="#2563eb" stroke-width="2"/>
<polyline points="80.0,1025.0 84.8,1029.4 89.7,1038.2 94.5,1048.3 99.3,1058.0 104.1,1067.5 109.0,1076.5 113.8,1085.2 118.6,1093.6 123.5,1101.8 128.3,1109.0 133.1,1115.3 137.9,1121.1 142.8,1126.2 147.6,1130.9 152.4,1135.4 157.3,1140.0 162.1,1144.0 166.9,1147.7 171.7,1151.2 176.6,1154.7 181.4,1157.6 186.2,1160.3 191.1,1162.6 195.9,1164.9 200.7,1167.1 205.5,1169.1 210.4,1171.1 215.2,1172.5 220.0,1173.8 224.8,1174.7 229.7,1175.9 234.5,1176.9 239.3,1177.7 244.2,1178.4 249.0,1179.0 253.8,1179.5 258.6,1180.1 263.5,1180.4 268.3,1180.8 273.1,1181.1 278.0,1181.4 282.8,1181.5 287.6,1181.8 292.4,1181.9 297.3,1182.1 302.1,1182.2 306.9,1182.4 311.8,1182.5 316.6,1182.6" fill="none" stroke="#059669" stroke-width="2"/>
<polyline points="80.0,1034.8 84.8,1038.8 89.7,1046.5 94.5,1055.4 99.3,1064.7 104.1,1074.2 109.0,1083.7 113.8,1092.5 118.6,1101.4 123.5,1109.4 128.3,1117.1 133.1,1124.4 137.9,1131.0 142.8,1136.8 147.6,1142.0 152.4,1146.8 157.3,1151.1 162.1,1155.1 166.9,1158.4 171.7,1161.4 176.6,1164.0 181.4,1166.7 186.2,1168.7 191.1,1170.8 195.9,1172.3 200.7,1173.6 205.5,1174.9 210.4,1176.0 215.2,1177.1 220.0,1178.0 224.8,1178.9 229.7,1179.7 234.5,1180.6 239.3,1181.1 244.2,1181.6 249.0,1182.1 253.8,1182.6 258.6,1182.9 263.5,1183.3 268.3,1183.7 273.1,1184.0 278.0,1184.2 282.8,1184.4 287.6,1184.7 292.4,1184.8 297.3,1185.0 302.1,1185.1 306.9,1185.2 311.8,1185.4 316.6,1185.5" fill="none" stroke="#dc2626" stroke-width="2"/>
<line x1="80" y1="1228" x2="558" y2="1228" stroke="#374151"/>
<line x1="80" y1="1010" x2="80" y2="1228" stroke="#374151"/>
<text x="319.0" y="1256" text-anchor="middle" font-family="Arial" font-size="11">epoch / step</text>
<line x1="80" y1="1254" x2="98" y2="1254" stroke="#2563eb" stroke-width="3"/>
<text x="103" y="1258" font-family="Arial" font-size="10">alpha=0.33</text>
<line x1="195" y1="1254" x2="213" y2="1254" stroke="#059669" stroke-width="3"/>
<text x="218" y="1258" font-family="Arial" font-size="10">alpha=0.66</text>
<line x1="310" y1="1254" x2="328" y2="1254" stroke="#dc2626" stroke-width="3"/>
<text x="333" y="1258" font-family="Arial" font-size="10">alpha=1.00</text>
<text x="598" y="992" font-family="Arial" font-size="16" font-weight="bold">Codebook cosine max</text>
<line x1="650" y1="1010.0" x2="1128" y2="1010.0" stroke="#e5e7eb"/>
<text x="642" y="1014.0" text-anchor="end" font-family="Arial" font-size="10" fill="#4b5563">0.943</text>
<line x1="650" y1="1064.5" x2="1128" y2="1064.5" stroke="#e5e7eb"/>
<text x="642" y="1068.5" text-anchor="end" font-family="Arial" font-size="10" fill="#4b5563">0.831</text>
<line x1="650" y1="1119.0" x2="1128" y2="1119.0" stroke="#e5e7eb"/>
<text x="642" y="1123.0" text-anchor="end" font-family="Arial" font-size="10" fill="#4b5563">0.719</text>
<line x1="650" y1="1173.5" x2="1128" y2="1173.5" stroke="#e5e7eb"/>
<text x="642" y="1177.5" text-anchor="end" font-family="Arial" font-size="10" fill="#4b5563">0.606</text>
<line x1="650" y1="1228.0" x2="1128" y2="1228.0" stroke="#e5e7eb"/>
<text x="642" y="1232.0" text-anchor="end" font-family="Arial" font-size="10" fill="#4b5563">0.494</text>
<polyline points="650.0,1025.0 654.8,1026.3 659.7,1030.1 664.5,1036.5 669.3,1037.7 674.1,1036.3 679.0,1035.6 683.8,1035.4 688.6,1034.1 693.5,1033.4 698.3,1034.8 703.1,1034.7 707.9,1035.4 712.8,1036.2 717.6,1039.3 722.4,1039.8 727.3,1040.1 732.1,1042.4 736.9,1043.0 741.7,1043.4 746.6,1043.2 751.4,1042.5 756.2,1043.3 761.1,1043.5 765.9,1045.1 770.7,1045.6 775.5,1045.9 780.4,1045.5 785.2,1044.0 790.0,1044.1 794.8,1044.7 799.7,1045.4 804.5,1043.8 809.3,1044.3 814.2,1044.5 819.0,1045.3 823.8,1046.2 828.6,1046.2 833.5,1046.3 838.3,1046.9 843.1,1047.3 848.0,1047.4 852.8,1047.9 857.6,1047.6 862.4,1047.5 867.3,1047.1 872.1,1046.5 876.9,1046.9 881.8,1047.2 886.6,1047.1 891.4,1047.5 896.2,1047.8 901.1,1047.7 905.9,1047.2 910.7,1047.2 915.6,1047.1 920.4,1047.4 925.2,1047.2 930.0,1047.1 934.9,1047.0 939.7,1047.1 944.5,1047.0 949.4,1046.7 954.2,1046.8 959.0,1046.8 963.8,1046.9 968.7,1046.9 973.5,1046.8 978.3,1046.4 983.2,1046.6 988.0,1047.1 992.8,1046.9 997.6,1046.9 1002.5,1046.6 1007.3,1046.5 1012.1,1046.4 1016.9,1046.4 1021.8,1046.5 1026.6,1046.4 1031.4,1046.3 1036.3,1046.1 1041.1,1046.3 1045.9,1046.4 1050.7,1046.1 1055.6,1046.2 1060.4,1046.4 1065.2,1046.4 1070.1,1046.4 1074.9,1046.2 1079.7,1046.0 1084.5,1046.0 1089.4,1045.9 1094.2,1046.1 1099.0,1046.1 1103.9,1046.2 1108.7,1046.1 1113.5,1046.1 1118.3,1046.2 1123.2,1046.1 1128.0,1046.1" fill="none" stroke="#2563eb" stroke-width="2"/>
<polyline points="650.0,1028.2 654.8,1028.9 659.7,1030.4 664.5,1034.8 669.3,1034.3 674.1,1036.1 679.0,1038.1 683.8,1039.3 688.6,1040.9 693.5,1043.6 698.3,1045.8 703.1,1052.9 707.9,1061.6 712.8,1068.5 717.6,1080.5 722.4,1091.7 727.3,1100.5 732.1,1113.0 736.9,1123.7 741.7,1135.4 746.6,1145.4 751.4,1154.5 756.2,1162.0 761.1,1165.1 765.9,1165.6 770.7,1166.2 775.5,1166.2 780.4,1166.2 785.2,1167.6 790.0,1167.6 794.8,1168.8 799.7,1168.8 804.5,1168.6 809.3,1168.9 814.2,1169.1 819.0,1169.4 823.8,1169.2 828.6,1169.4 833.5,1169.3 838.3,1169.3 843.1,1169.0 848.0,1168.9 852.8,1168.9 857.6,1168.9 862.4,1168.7 867.3,1168.4 872.1,1168.4 876.9,1168.1 881.8,1168.1 886.6,1168.1" fill="none" stroke="#059669" stroke-width="2"/>
<polyline points="650.0,1065.7 654.8,1063.7 659.7,1061.0 664.5,1063.7 669.3,1067.0 674.1,1071.0 679.0,1075.5 683.8,1081.2 688.6,1087.1 693.5,1093.4 698.3,1100.1 703.1,1106.5 707.9,1112.3 712.8,1117.8 717.6,1123.7 722.4,1130.0 727.3,1135.7 732.1,1141.0 736.9,1145.7 741.7,1149.9 746.6,1155.0 751.4,1159.0 756.2,1163.4 761.1,1167.1 765.9,1170.6 770.7,1173.8 775.5,1176.6 780.4,1179.6 785.2,1182.9 790.0,1185.3 794.8,1188.1 799.7,1191.1 804.5,1193.0 809.3,1194.9 814.2,1196.9 819.0,1199.3 823.8,1200.8 828.6,1201.9 833.5,1203.1 838.3,1204.7 843.1,1206.0 848.0,1207.0 852.8,1208.1 857.6,1208.9 862.4,1209.7 867.3,1210.5 872.1,1211.1 876.9,1211.7 881.8,1212.4 886.6,1213.0" fill="none" stroke="#dc2626" stroke-width="2"/>
<line x1="650" y1="1228" x2="1128" y2="1228" stroke="#374151"/>
<line x1="650" y1="1010" x2="650" y2="1228" stroke="#374151"/>
<text x="889.0" y="1256" text-anchor="middle" font-family="Arial" font-size="11">epoch / step</text>
<line x1="650" y1="1254" x2="668" y2="1254" stroke="#2563eb" stroke-width="3"/>
<text x="673" y="1258" font-family="Arial" font-size="10">alpha=0.33</text>
<line x1="765" y1="1254" x2="783" y2="1254" stroke="#059669" stroke-width="3"/>
<text x="788" y="1258" font-family="Arial" font-size="10">alpha=0.66</text>
<line x1="880" y1="1254" x2="898" y2="1254" stroke="#dc2626" stroke-width="3"/>
<text x="903" y="1258" font-family="Arial" font-size="10">alpha=1.00</text>
<text x="1168" y="992" font-family="Arial" font-size="16" font-weight="bold">Codebook update norm</text>
<line x1="1220" y1="1010.0" x2="1698" y2="1010.0" stroke="#e5e7eb"/>
<text x="1212" y="1014.0" text-anchor="end" font-family="Arial" font-size="10" fill="#4b5563">0.42</text>
<line x1="1220" y1="1064.5" x2="1698" y2="1064.5" stroke="#e5e7eb"/>
<text x="1212" y="1068.5" text-anchor="end" font-family="Arial" font-size="10" fill="#4b5563">0.309</text>
<line x1="1220" y1="1119.0" x2="1698" y2="1119.0" stroke="#e5e7eb"/>
<text x="1212" y="1123.0" text-anchor="end" font-family="Arial" font-size="10" fill="#4b5563">0.198</text>
<line x1="1220" y1="1173.5" x2="1698" y2="1173.5" stroke="#e5e7eb"/>
<text x="1212" y="1177.5" text-anchor="end" font-family="Arial" font-size="10" fill="#4b5563">0.0879</text>
<line x1="1220" y1="1228.0" x2="1698" y2="1228.0" stroke="#e5e7eb"/>
<text x="1212" y="1232.0" text-anchor="end" font-family="Arial" font-size="10" fill="#4b5563">-0.0227</text>
<polyline points="1224.8,1185.9 1229.7,1157.5 1234.5,1137.8 1239.3,1122.4 1244.1,1107.8 1249.0,1089.1 1253.8,1070.0 1258.6,1050.6 1263.5,1035.8 1268.3,1030.7 1273.1,1036.7 1277.9,1039.2 1282.8,1050.7 1287.6,1062.4 1292.4,1065.4 1297.3,1070.8 1302.1,1082.3 1306.9,1086.6 1311.7,1090.7 1316.6,1096.5 1321.4,1104.9 1326.2,1108.7 1331.1,1108.0 1335.9,1119.7 1340.7,1117.9 1345.5,1122.0 1350.4,1121.1 1355.2,1133.6 1360.0,1134.6 1364.8,1133.8 1369.7,1138.4 1374.5,1145.6 1379.3,1145.1 1384.2,1144.1 1389.0,1150.2 1393.8,1154.0 1398.6,1158.8 1403.5,1164.3 1408.3,1163.4 1413.1,1161.1 1418.0,1161.4 1422.8,1171.7 1427.6,1166.3 1432.4,1171.1 1437.3,1169.5 1442.1,1169.4 1446.9,1174.2 1451.8,1178.6 1456.6,1172.5 1461.4,1179.8 1466.2,1181.3 1471.1,1182.2 1475.9,1179.5 1480.7,1188.0 1485.6,1184.8 1490.4,1187.8 1495.2,1189.9 1500.0,1190.6 1504.9,1190.8 1509.7,1194.9 1514.5,1191.7 1519.4,1193.3 1524.2,1193.3 1529.0,1195.4 1533.8,1196.8 1538.7,1197.5 1543.5,1198.6 1548.3,1198.8 1553.2,1198.9 1558.0,1200.4 1562.8,1203.4 1567.6,1202.4 1572.5,1204.3 1577.3,1204.4 1582.1,1204.7 1586.9,1205.5 1591.8,1207.3 1596.6,1205.3 1601.4,1207.4 1606.3,1207.7 1611.1,1209.2 1615.9,1208.9 1620.7,1209.2 1625.6,1209.3 1630.4,1210.2 1635.2,1210.4 1640.1,1210.0 1644.9,1211.0 1649.7,1210.4 1654.5,1211.0 1659.4,1211.5 1664.2,1211.3 1669.0,1211.9 1673.9,1212.3 1678.7,1212.0 1683.5,1213.0 1688.3,1212.3 1693.2,1212.7 1698.0,1212.8" fill="none" stroke="#2563eb" stroke-width="2"/>
<polyline points="1224.8,1095.6 1229.7,1039.4 1234.5,1025.0 1239.3,1030.8 1244.1,1032.6 1249.0,1044.0 1253.8,1053.4 1258.6,1057.0 1263.5,1065.8 1268.3,1072.2 1273.1,1084.6 1277.9,1089.2 1282.8,1100.9 1287.6,1100.8 1292.4,1110.9 1297.3,1113.5 1302.1,1121.7 1306.9,1128.5 1311.7,1134.7 1316.6,1137.8 1321.4,1147.5 1326.2,1149.3 1331.1,1152.0 1335.9,1156.3 1340.7,1160.0 1345.5,1162.5 1350.4,1171.1 1355.2,1175.2 1360.0,1175.0 1364.8,1180.4 1369.7,1181.6 1374.5,1186.2 1379.3,1189.9 1384.2,1190.7 1389.0,1193.6 1393.8,1195.7 1398.6,1197.9 1403.5,1200.3 1408.3,1201.8 1413.1,1203.3 1418.0,1205.4 1422.8,1205.3 1427.6,1206.2 1432.4,1208.2 1437.3,1208.2 1442.1,1209.5 1446.9,1209.5 1451.8,1210.2 1456.6,1210.2" fill="none" stroke="#059669" stroke-width="2"/>
<polyline points="1224.8,1104.9 1229.7,1036.1 1234.5,1027.4 1239.3,1029.9 1244.1,1036.6 1249.0,1044.7 1253.8,1055.9 1258.6,1057.9 1263.5,1067.4 1268.3,1072.9 1273.1,1081.3 1277.9,1089.9 1282.8,1098.3 1287.6,1105.6 1292.4,1110.4 1297.3,1117.8 1302.1,1120.5 1306.9,1132.6 1311.7,1137.2 1316.6,1142.5 1321.4,1143.9 1326.2,1154.4 1331.1,1150.9 1335.9,1163.5 1340.7,1169.7 1345.5,1171.2 1350.4,1175.2 1355.2,1177.4 1360.0,1180.5 1364.8,1184.0 1369.7,1186.9 1374.5,1186.4 1379.3,1192.9 1384.2,1195.2 1389.0,1194.9 1393.8,1197.6 1398.6,1200.7 1403.5,1201.5 1408.3,1201.8 1413.1,1203.8 1418.0,1206.8 1422.8,1206.1 1427.6,1206.4 1432.4,1208.5 1437.3,1209.5 1442.1,1209.3 1446.9,1210.2 1451.8,1210.8 1456.6,1211.2" fill="none" stroke="#dc2626" stroke-width="2"/>
<line x1="1220" y1="1228" x2="1698" y2="1228" stroke="#374151"/>
<line x1="1220" y1="1010" x2="1220" y2="1228" stroke="#374151"/>
<text x="1459.0" y="1256" text-anchor="middle" font-family="Arial" font-size="11">epoch / step</text>
<line x1="1220" y1="1254" x2="1238" y2="1254" stroke="#2563eb" stroke-width="3"/>
<text x="1243" y="1258" font-family="Arial" font-size="10">alpha=0.33</text>
<line x1="1335" y1="1254" x2="1353" y2="1254" stroke="#059669" stroke-width="3"/>
<text x="1358" y="1258" font-family="Arial" font-size="10">alpha=0.66</text>
<line x1="1450" y1="1254" x2="1468" y2="1254" stroke="#dc2626" stroke-width="3"/>
<text x="1473" y="1258" font-family="Arial" font-size="10">alpha=1.00</text>
</svg>